<svg width="18" height="19" viewBox="0 0 18 19" fill="none" xmlns="http://www.w3.org/2000/svg"><path fill-rule="evenodd" clip-rule="evenodd" d="M9 0C4.04956 0 0 4.27497 0 9.5 0 14.725 4.04956 19 9 19c4.9504 0 9-4.275 9-9.5C18 4.27497 13.9504 0 9 0zm2.25 14.25c.4493.3562.8998 2.85.8998 2.85-1.013.475-2.5873.9352-4.2748.5938 0 0-1.125-.5938-1.125-2.2563 0-.3617.02637-.6841.05054-.9781.08789-1.0573.14502-1.7481-1.17554-2.5844-1.0415-.6593-1.95447-.8216-2.57959-.9327-.38892-.069-.66577-.1183-.79541-.2548-.33728-.3562-.5625-1.42501 0-2.375h1.125v-2.375h2.25c.67456-.47496 2.25-4.63121 2.25-4.63121.67456-.23751 1.85559-.25607 2.25 0-2.21924 2.82039-.98767 2.39602.1198 2.0142.7294-.25165 1.4062-.48481 1.0052.24201-.3724.71965-1.35901 1.58338-2.1698 2.29346l-.00989.00841C8.41443 6.43956 7.875 6.91271 7.875 7.125c0 .47503.78772 1.1875 1.125 1.1875.15601 0 .55481-.51112.98218-1.05914l.00769-.0092C10.4821 6.61351 11.0094 5.9375 11.25 5.9375c.4493 0 1.4623 2.01876 1.125 2.375-.1461.15387-.9207.28557-1.7908.43335-1.14475.19447-2.45432.41683-2.7092.75415-.45044.5938-.5625 2.9688 0 3.5625.3241.3422 1.24695.5661 2.05554.7626.59436.1444 1.12826.274 1.31946.4249zm4.5-3.5625c.1121 1.0687-.7877 4.275-.7877 4.275 2.8443-3.4995 1.8006-7.71878 1.5754-7.8375-.6756-.23751-2.8125-.23751-3.0377 0v1.1875c.1241.13054.3494.08161.5834.03088.1922-.04153.39-.08437.5416-.03088.3373.11872 1.0129 1.30622 1.125 2.375z" fill="#fff"/></svg>