<svg width="88" height="84" viewBox="0 0 88 84" fill="none" xmlns="http://www.w3.org/2000/svg">
<path d="M24.4444 53.3529C24.4444 53.9052 24.8922 54.3529 25.4444 54.3529H68.4444C71.1333 54.3529 73.3333 56.5765 73.3333 59.2941C73.3333 62.0118 71.1333 64.2353 68.4444 64.2353H19.5556C16.8667 64.2353 14.6667 62.0118 14.6667 59.2941V10.8824C14.6667 10.3301 14.219 9.88235 13.6667 9.88235H4.88889C2.2 9.88235 0 7.65882 0 4.94118C0 2.22353 2.2 0 4.88889 0H19.5556C22.2444 0 24.4444 2.22353 24.4444 4.94118V13.8235C24.4444 14.3758 24.8922 14.8235 25.4444 14.8235H86.2859C87.0517 14.8235 87.5333 15.6491 87.1564 16.3157L68.7316 48.9039C68.5541 49.2177 68.2215 49.4118 67.8611 49.4118H25.4444C24.8922 49.4118 24.4444 49.8595 24.4444 50.4118V53.3529ZM22 69.1765C26.0578 69.1765 29.3333 72.4871 29.3333 76.5882C29.3333 80.6894 26.0578 84 22 84C17.9422 84 14.6667 80.6894 14.6667 76.5882C14.6667 72.4871 17.9422 69.1765 22 69.1765ZM66 69.1765C70.0578 69.1765 73.3333 72.4871 73.3333 76.5882C73.3333 80.6894 70.0578 84 66 84C61.9422 84 58.6667 80.6894 58.6667 76.5882C58.6667 72.4871 61.9422 69.1765 66 69.1765Z" fill="white"/>
</svg>
