<svg width="20" height="21" viewBox="0 0 20 21" fill="none" xmlns="http://www.w3.org/2000/svg">
<path d="M5.55556 12.9706C5.55556 13.3117 5.83209 13.5882 6.1732 13.5882H15.5556C16.1667 13.5882 16.6667 14.1441 16.6667 14.8235C16.6667 15.5029 16.1667 16.0588 15.5556 16.0588H4.44444C3.83333 16.0588 3.33333 15.5029 3.33333 14.8235V3.47059C3.33333 2.9183 2.88562 2.47059 2.33333 2.47059H1.11111C0.5 2.47059 0 1.91471 0 1.23529C0 0.555882 0.5 0 1.11111 0H4.44444C5.05556 0 5.55556 0.555882 5.55556 1.23529V2.70588C5.55556 3.25817 6.00327 3.70588 6.55556 3.70588H18.3617C19.1099 3.70588 19.5931 4.49753 19.2511 5.16302L15.8346 11.8101C15.6633 12.1434 15.32 12.3529 14.9452 12.3529H6.1732C5.83209 12.3529 5.55556 12.6295 5.55556 12.9706ZM5 17.2941C5.92222 17.2941 6.66667 18.1218 6.66667 19.1471C6.66667 20.1724 5.92222 21 5 21C4.07778 21 3.33333 20.1724 3.33333 19.1471C3.33333 18.1218 4.07778 17.2941 5 17.2941ZM15 17.2941C15.9222 17.2941 16.6667 18.1218 16.6667 19.1471C16.6667 20.1724 15.9222 21 15 21C14.0778 21 13.3333 20.1724 13.3333 19.1471C13.3333 18.1218 14.0778 17.2941 15 17.2941Z" fill="white"/>
</svg>
