<svg width="18" height="19" viewBox="0 0 18 19" fill="none" xmlns="http://www.w3.org/2000/svg">
<path fill-rule="evenodd" clip-rule="evenodd" d="M9 0C4.04956 0 0 4.27497 0 9.5C0 14.725 4.04956 19 9 19C13.9504 19 18 14.725 18 9.5C18 4.27497 13.9504 0 9 0ZM11.25 14.25C11.6993 14.6062 12.1498 17.1 12.1498 17.1C11.1368 17.575 9.5625 18.0352 7.875 17.6938C7.875 17.6938 6.75 17.1 6.75 15.4375C6.75 15.0758 6.77637 14.7534 6.80054 14.4594C6.88843 13.4021 6.94556 12.7113 5.625 11.875C4.5835 11.2157 3.67053 11.0534 3.04541 10.9423C2.65649 10.8733 2.37964 10.824 2.25 10.6875C1.91272 10.3313 1.6875 9.26249 2.25 8.3125H3.375V5.9375H5.625C6.29956 5.46254 7.875 1.30629 7.875 1.30629C8.54956 1.06878 9.73059 1.05022 10.125 1.30629C7.90576 4.12668 9.13733 3.70231 10.2448 3.32049C10.9742 3.06884 11.651 2.83568 11.25 3.5625C10.8776 4.28215 9.89099 5.14588 9.0802 5.85596L9.07031 5.86437C8.41443 6.43956 7.875 6.91271 7.875 7.125C7.875 7.60003 8.66272 8.3125 9 8.3125C9.15601 8.3125 9.55481 7.80138 9.98218 7.25336L9.98987 7.24416C10.4821 6.61351 11.0094 5.9375 11.25 5.9375C11.6993 5.9375 12.7123 7.95626 12.375 8.3125C12.2289 8.46637 11.4543 8.59807 10.5842 8.74585C9.43945 8.94032 8.12988 9.16268 7.875 9.5C7.42456 10.0938 7.3125 12.4688 7.875 13.0625C8.1991 13.4047 9.12195 13.6286 9.93054 13.8251C10.5249 13.9695 11.0588 14.0991 11.25 14.25ZM15.75 10.6875C15.8621 11.7562 14.9623 14.9625 14.9623 14.9625C17.8066 11.463 16.7629 7.24372 16.5377 7.125C15.8621 6.88749 13.7252 6.88749 13.5 7.125V8.3125C13.6241 8.44304 13.8494 8.39411 14.0834 8.34338C14.2756 8.30185 14.4734 8.25901 14.625 8.3125C14.9623 8.43122 15.6379 9.61872 15.75 10.6875Z" fill="white"/>
</svg>
