<svg width="59" height="75" viewBox="0 0 59 75" fill="none" xmlns="http://www.w3.org/2000/svg"><path d="M56.4941 33.9415c-1.627-3.6628-3.9922-6.9503-6.9476-9.6569l-2.4387-2.2382c-.0828-.0739-.1825-.1263-.2903-.1527-.1078-.0264-.2204-.0259-.328.0014a.67723.67723 0 00-.2889.1552c-.0822.0746-.1448.1683-.1823.2728l-1.0895 3.1267c-.6788 1.9616-1.9276 3.965-3.6959 5.935-.1173.1257-.2514.1592-.3436.1676-.0922.0084-.2347-.0084-.3604-.1257-.1173-.1006-.176-.2515-.1676-.4024.3101-5.0464-1.1984-10.7382-4.5004-16.9331-2.7321-5.14695-6.5285-9.16227-11.272-11.96209l-3.4612-2.037c-.4526-.268246-1.0308.083827-1.0057.611938l.1844 4.023702c.1257 2.74953-.1928 5.18051-.947 7.20075-.9219 2.4729-2.2461 4.7698-3.939 6.8319-1.1781 1.4331-2.5134 2.7294-3.9808 3.8644-3.53406 2.7174-6.40773 6.1993-8.4058 10.185C1.04066 36.8303.002432 41.2567 0 45.7443c0 3.9567.779402 7.7876 2.32145 11.4005 1.48896 3.4786 3.6377 6.6356 6.32741 9.2965 2.71534 2.6824 5.86644 4.7949 9.37794 6.2618C21.664 74.2288 25.5191 75 29.5 75c3.9808 0 7.8359-.7712 11.4731-2.2885 3.5029-1.4584 6.6882-3.5853 9.378-6.2619 2.7153-2.6824 4.844-5.8176 6.3274-9.2964 1.5397-3.6031 2.3296-7.4821 2.3214-11.4005 0-4.0907-.838-8.0641-2.5058-11.8112zM46.3451 62.384c-4.5004 4.4596-10.4758 6.9074-16.8451 6.9074-6.3693 0-12.3448-2.4478-16.8452-6.9074-4.48364-4.4512-6.95594-10.3526-6.95594-16.6313 0-3.6465.8213-7.142 2.43877-10.3945 1.57557-3.1771 3.92217-6.0188 6.77157-8.2067 1.8173-1.3899 3.4655-2.9879 4.9111-4.7614 2.0952-2.5567 3.7378-5.4068 4.8775-8.4665.4676-1.2621.8073-2.568 1.0141-3.898 2.0197 1.861 3.7126 4.1075 5.129 6.7397 2.7991 5.2476 4.0897 9.9168 3.8383 13.8902-.06.9358.0928 1.873.4469 2.7413.3542.8682.9006 1.6449 1.598 2.2715.6044.5461 1.3113.9667 2.0795 1.2372.7683.2705 1.5827.3857 2.3958.3388 1.651-.0838 3.1679-.8131 4.2741-2.0454 1.1147-1.249 2.0784-2.5232 2.883-3.8225 1.1733 1.5005 2.1538 3.1351 2.9332 4.8955 1.3325 3.001 2.0114 6.1948 2.0114 9.4808 0 6.2787-2.4723 12.1885-6.956 16.6313z" fill="#fff"/></svg>
