<svg width="42" height="24" viewBox="0 0 42 24" fill="none" xmlns="http://www.w3.org/2000/svg">
<path fill-rule="evenodd" clip-rule="evenodd" d="M0 2C0 0.89543 0.895431 0 2 0H40C41.1046 0 42 0.895431 42 2V4C42 5.10457 41.1046 6 40 6H2C0.89543 6 0 5.10457 0 4V2ZM0 11C0 9.89543 0.895431 9 2 9H40C41.1046 9 42 9.89543 42 11V13C42 14.1046 41.1046 15 40 15H2C0.89543 15 0 14.1046 0 13V11ZM2 18C0.895431 18 0 18.8954 0 20V22C0 23.1046 0.89543 24 2 24H40C41.1046 24 42 23.1046 42 22V20C42 18.8954 41.1046 18 40 18H2Z" fill="white"/>
</svg>
